#!OML:ASF F:\VICON\USERDATA\INSTALL\Justin_Nancy\Justin_Nancy.ASF
:FULLY-SPECIFIED
:DEGREES
256
root -0.0215921 17.2718 9.92558 2.98014 -7.13314 -6.00538
lowerback 5.64807 2.60251 5.60032
upperback -0.533073 3.96505 3.17832
thorax -3.56934 1.88819 -0.180999
lowerneck -17.04 -3.22295 -8.92177
upperneck 22.3681 -3.31073 5.16719
head 10.1977 -1.68557 2.86702
rclavicle 3.06128e-014 -1.98785e-015
rhumerus -24.0801 -4.20965 -80.5936
rradius 35.5945
rwrist 2.32345
rhand -14.3021 8.92336
rfingers 7.12502
rthumb 11.8378 -20.722
lclavicle 3.06128e-014 -1.98785e-015
lhumerus -39.4008 15.9456 81.1119
lradius 22.1937
lwrist -13.9209
lhand -13.7027 25.9253
lfingers 7.12502
lthumb 12.4158 415.537
rfemur 10.7465 6.15625 31.2121
rtibia 11.0288
rfoot -13.0717 -4.76048
rtoes -2.32773
lfemur -32.0113 -7.88397 -7.7157
ltibia 21.1998
lfoot -10.0384 15.3733
ltoes 2.63151
257
root -0.00992606 17.2636 10.0818 2.97999 -7.17249 -5.78873
lowerback 5.69338 2.62736 5.40574
upperback -0.647451 3.99217 3.07298
thorax -3.71789 1.89975 -0.190006
lowerneck -17.0713 -3.20205 -8.9424
upperneck 22.591 -3.30906 5.2837
head 10.2859 -1.67527 2.91603
rclavicle 3.29734e-014 3.1408e-014
rhumerus -24.2683 -4.57883 -80.6514
rradius 35.6048
rwrist 2.39995
rhand -14.3103 9.10534
rfingers 7.12502
rthumb 11.8299 -20.5405
lclavicle 3.29734e-014 3.1408e-014
lhumerus -39.4417 16.7832 80.5119
lradius 21.5246
lwrist -14.8345
lhand -13.8525 25.7447
lfingers 7.12502
lthumb 12.2713 415.365
rfemur 11.1803 6.2396 30.9261
rtibia 11.2499
rfoot -13.1819 -4.81779
rtoes -4.82067
lfemur -31.8341 -8.08129 -7.86819
ltibia 20.8191
lfoot -10.4103 15.2974
ltoes 1.89959
258
root 0.00561567 17.2554 10.2445 2.96646 -7.19213 -5.67251
lowerback 5.60803 2.64183 5.37411
upperback -0.660414 4.00073 3.00539
thorax -3.68 1.90484 -0.238811
lowerneck -17.1579 -3.1497 -8.91592
upperneck 22.727 -3.24351 5.30282
head 10.3458 -1.64104 2.92968
rclavicle -8.34896e-015 -4.05521e-014
rhumerus -24.1827 -5.18938 -80.6636
rradius 35.2211
rwrist 2.43101
rhand -14.3262 9.44106
rfingers 7.12502
rthumb 11.8145 -20.2057
lclavicle -8.34896e-015 -4.05521e-014
lhumerus -39.5723 16.7528 80.5237
lradius 21.5505
lwrist -14.6028
lhand -13.8456 26.3793
lfingers 7.12502
lthumb 12.278 415.999
rfemur 11.6705 6.33341 30.736
rtibia 11.5587
rfoot -13.2271 -4.86085
rtoes -7.50724
lfemur -31.5181 -7.5203 -8.30793
ltibia 20.5934
lfoot -10.2603 14.5272
ltoes 0.855568
259
root 0.0260003 17.2506 10.403 3.09579 -7.15506 -5.76491
lowerback 5.40217 2.6436 5.62826
upperback -0.691938 4.00328 2.95723
thorax -3.57646 1.90249 -0.418638
lowerneck -17.0794 -3.16333 -8.81654
upperneck 22.6458 -3.2759 5.2244
head 10.3009 -1.65658 2.87914
rclavicle -4.84786e-014 -4.8901e-014
rhumerus -24.0949 -5.914 -80.6643
rradius 35.3436
rwrist 3.67704
rhand -13.1672 7.46063
rfingers 7.12502
rthumb 12.9321 -22.1186
lclavicle -4.84786e-014 -4.8901e-014
lhumerus -39.7982 16.174 80.7675
lradius 21.9622
lwrist -14.1258
lhand -13.7831 27.0355
lfingers 7.12502
lthumb 12.3382 416.651
rfemur 11.9538 6.33902 30.7175
rtibia 11.8767
rfoot -13.0977 -4.62872
rtoes -8.97946
lfemur -31.3524 -6.78432 -8.61928
ltibia 20.5546
lfoot -9.92727 13.7165
ltoes 0.430807
260
root 0.0452435 17.2502 10.5629 3.06435 -7.05683 -5.62017
lowerback 5.33556 2.60059 5.54817
upperback -0.641189 3.93137 2.93211
thorax -3.49265 1.87105 -0.390143
lowerneck -17.3397 -3.21529 -8.83282
upperneck 22.6733 -3.31528 5.20289
head 10.3638 -1.67554 2.86761
rclavicle 2.28602e-014 1.59028e-014
rhumerus -23.8546 -6.28403 -80.6351
rradius 35.0863
rwrist 3.82701
rhand -13.114 7.48171
rfingers 7.12502
rthumb 12.9833 -22.0943
lclavicle 2.28602e-014 1.59028e-014
lhumerus -39.828 16.358 80.7266
lradius 22.0144
lwrist -14.5387
lhand -13.5367 26.9412
lfingers 7.12502
lthumb 12.5758 416.543
rfemur 12.3787 6.37429 30.4805
rtibia 12.097
rfoot -12.7246 -4.28648
rtoes -8.6236
lfemur -31.0817 -5.94468 -9.32704
ltibia 20.8018
lfoot -9.40141 12.7108
ltoes 0.271409
261
root 0.0636639 17.2428 10.7325 2.90094 -6.84617 -5.53439
lowerback 5.32504 2.55978 5.53758
upperback -0.535512 3.86872 2.92297
thorax -3.37957 1.84424 -0.38569
lowerneck -17.531 -3.26745 -8.97835
upperneck 22.5611 -3.37391 5.39175
head 10.3703 -1.68883 2.94911
rclavicle -6.63444e-015 -2.26615e-014
rhumerus -23.734 -6.6665 -80.6008
rradius 34.815
rwrist 3.34997
rhand -13.6992 8.3503
rfingers 7.12502
rthumb 12.4191 -21.2608
lclavicle -6.63444e-015 -2.26615e-014
lhumerus -39.5545 17.0107 80.467
lradius 21.4918
lwrist -15.2255
lhand -13.7749 25.7023
lfingers 7.12502
lthumb 12.3461 415.318
rfemur 13.0023 6.34909 30.368
rtibia 12.3149
rfoot -12.4312 -4.26348
rtoes -9.04672
lfemur -30.6545 -5.14304 -10.0174
ltibia 21.1816
lfoot -8.82354 11.5225
ltoes 0.400315
262
root 0.08691 17.2314 10.9105 2.72584 -6.68752 -5.57188
lowerback 5.21944 2.52331 5.72059
upperback -0.413017 3.81596 2.94473
thorax -3.18514 1.82126 -0.451647
lowerneck -17.6569 -3.32188 -9.08579
upperneck 22.5633 -3.42512 5.46132
head 10.4029 -1.71166 2.98429
rclavicle -2.99419e-014 -1.11319e-014
rhumerus -23.9396 -7.21967 -80.5308
rradius 34.9644
rwrist 3.23613
rhand -14.0306 8.58658
rfingers 7.12502
rthumb 12.0996 -21.0436
lclavicle -2.99419e-014 -1.11319e-014
lhumerus -39.2396 17.6205 80.2481
lradius 20.8576
lwrist -15.8665
lhand -13.7301 25.0319
lfingers 7.12502
lthumb 12.3894 414.645
rfemur 13.6263 6.23416 30.3291
rtibia 12.693
rfoot -12.4458 -4.19575
rtoes -10.1539
lfemur -30.1297 -4.3457 -10.5913
ltibia 21.5444
lfoot -8.38195 10.2492
ltoes -0.566534
263
root 0.113496 17.2262 11.0922 2.59645 -6.65021 -5.36268
lowerback 4.93056 2.52955 5.67671
upperback -0.315579 3.78986 2.8851
thorax -2.92121 1.81673 -0.469674
lowerneck -17.6053 -3.37654 -9.11373
upperneck 22.5847 -3.49853 5.45693
head 10.4077 -1.74924 2.9773
rclavicle -6.01821e-014 -1.90833e-014
rhumerus -24.2093 -7.86536 -80.44
rradius 35.0257
rwrist 3.39159
rhand -13.8909 8.22022
rfingers 7.12502
rthumb 12.2343 -21.402
lclavicle -6.01821e-014 -1.90833e-014
lhumerus -39.2201 17.6502 80.307
lradius 20.7897
lwrist -16.0049
lhand -13.2691 25.6143
lfingers 7.12502
lthumb 12.8338 415.2
rfemur 14.2107 6.08968 29.9241
rtibia 13.0464
rfoot -12.284 -3.80751
rtoes -11.2499
lfemur -29.6629 -3.6641 -11.3831
ltibia 21.9871
lfoot -7.90838 9.00186
ltoes -2.17968
264
root 0.136918 17.2341 11.2707 2.4894 -6.70449 -4.97193
lowerback 4.78159 2.56052 5.40451
upperback -0.353907 3.80215 2.75403
thorax -2.88458 1.82692 -0.448651
lowerneck -17.5294 -3.32116 -9.05253
upperneck 22.7101 -3.44634 5.44393
head 10.4327 -1.72404 2.97241
rclavicle -4.33848e-014 -4.05521e-014
rhumerus -24.6095 -8.13752 -80.4143
rradius 35.0998
rwrist 3.39055
rhand -14.0615 8.10662
rfingers 7.12502
rthumb 12.0698 -21.5253
lclavicle -4.33848e-014 -4.05521e-014
lhumerus -39.3643 17.4983 80.3569
lradius 20.8582
lwrist -15.8579
lhand -13.0013 26.0843
lfingers 7.12502
lthumb 13.092 415.653
rfemur 14.6688 6.18477 29.3777
rtibia 13.4706
rfoot -11.8408 -3.58416
rtoes -11.8129
lfemur -29.2817 -3.30395 -12.1743
ltibia 22.3995
lfoot -6.87138 7.94228
ltoes -3.59271
265
root 0.162254 17.2507 11.4508 2.32029 -6.66858 -4.61831
lowerback 4.76099 2.56053 5.21452
upperback -0.397445 3.78878 2.62959
thorax -2.92202 1.82114 -0.47109
lowerneck -17.3711 -3.28938 -8.97089
upperneck 22.6081 -3.42409 5.39281
head 10.3609 -1.71379 2.94256
rclavicle -4.4975e-015 1.47101e-014
rhumerus -25.0458 -8.43174 -80.396
rradius 35.0974
rwrist 3.26835
rhand -14.4923 9.34165
rfingers 7.12502
rthumb 11.6544 -20.3142
lclavicle -4.4975e-015 1.47101e-014
lhumerus -39.58 17.1665 80.4729
lradius 21.1547
lwrist -15.5402
lhand -12.9378 26.0168
lfingers 7.12502
lthumb 13.1531 415.582
rfemur 14.9814 6.18696 28.8695
rtibia 14.2032
rfoot -11.5097 -3.34338
rtoes -12.1429
lfemur -28.8871 -2.97937 -12.8992
ltibia 22.6801
lfoot -5.48293 6.7889
ltoes -4.69547
266
root 0.186024 17.2693 11.6356 2.14856 -6.52718 -4.31699
lowerback 4.71138 2.53864 5.05254
upperback -0.422156 3.74568 2.54022
thorax -2.92554 1.80147 -0.468946
lowerneck -17.4259 -3.36366 -8.90901
upperneck 22.7662 -3.5165 5.27707
head 10.4334 -1.76559 2.87914
rclavicle 2.13197e-014 1.19271e-014
rhumerus -25.5034 -8.86326 -80.3049
rradius 35.0342
rwrist 3.09713
rhand -14.7578 10.4679
rfingers 7.12502
rthumb 11.3983 -19.2023
lclavicle 2.13197e-014 1.19271e-014
lhumerus -39.6897 17.0265 80.5208
lradius 21.2682
lwrist -15.5977
lhand -12.7187 25.9738
lfingers 7.12502
lthumb 13.3643 415.525
rfemur 15.0753 6.24933 28.4977
rtibia 15.2592
rfoot -11.0635 -3.18123
rtoes -12.7899
lfemur -28.4517 -2.61113 -13.5827
ltibia 22.8427
lfoot -4.31978 5.56598
ltoes -5.48291
267
root 0.201393 17.2894 11.8166 2.09469 -6.52741 -3.96837
lowerback 4.55775 2.57094 4.64322
upperback -0.430796 3.75474 2.4953
thorax -2.87009 1.81375 -0.282011
lowerneck -17.6773 -3.46166 -9.04801
upperneck 23.1159 -3.6282 5.37991
head 10.6236 -1.81731 2.92758
rclavicle -2.96686e-014 -3.33958e-014
rhumerus -25.8344 -9.54034 -80.1329
rradius 34.9534
rwrist 3.25844
rhand -14.6162 10.8543
rfingers 7.12502
rthumb 11.5349 -18.8083
lclavicle -2.96686e-014 -3.33958e-014
lhumerus -39.5751 16.9879 80.6022
lradius 21.0426
lwrist -15.6428
lhand -12.7679 25.7865
lfingers 7.12502
lthumb 13.3169 415.341
rfemur 14.7966 6.61204 28.1515
rtibia 16.7397
rfoot -10.4052 -3.19354
rtoes -13.8081
lfemur -28.0192 -2.23317 -14.22
ltibia 22.8323
lfoot -3.48924 4.28279
ltoes -4.27425
268
root 0.217017 17.3073 11.995 1.97602 -6.58028 -3.48203
lowerback 4.55225 2.60347 4.08242
upperback -0.52183 3.76943 2.4076
thorax -2.98979 1.82681 -0.0653145
lowerneck -17.3787 -3.46951 -9.11672
upperneck 23.0559 -3.66627 5.45469
head 10.5505 -1.83546 2.96148
rclavicle 1.91579e-014 3.97569e-016
rhumerus -26.1706 -9.90991 -80.0351
rradius 34.6414
rwrist 3.27381
rhand -14.5323 10.6016
rfingers 7.12502
rthumb 11.6158 -19.0564
lclavicle 1.91579e-014 3.97569e-016
lhumerus -39.5632 17.09 80.5774
lradius 20.7937
lwrist -15.6937
lhand -13.0681 26.2991
lfingers 7.12502
lthumb 13.0275 415.872
rfemur 14.3805 6.96714 27.663
rtibia 18.6678
rfoot -9.71043 -3.32268
rtoes -14.6249
lfemur -27.3678 -1.91393 -14.9779
ltibia 22.6389
lfoot -2.80383 3.01683
ltoes -5.52976
269
root 0.230702 17.3287 12.1691 1.77901 -6.31394 -2.78491
lowerback 4.47517 2.55926 3.42261
upperback -0.559118 3.66548 2.18308
thorax -3.01326 1.78429 0.0790448
lowerneck -16.8908 -3.46573 -9.04195
upperneck 22.6797 -3.7299 5.50229
head 10.3246 -1.8553 2.95393
rclavicle 6.16481e-014 0
rhumerus -26.6636 -10.4946 -79.9685
rradius 34.3277
rwrist 3.47813
rhand -14.6527 10.8064
rfingers 7.12502
rthumb 11.4997 -18.8582
lclavicle 6.16481e-014 0
lhumerus -39.3066 17.4003 80.2526
lradius 20.2616
lwrist -16.2497
lhand -13.0432 26.3653
lfingers 7.12502
lthumb 13.0516 415.937
rfemur 13.8009 7.02552 26.9731
rtibia 20.925
rfoot -8.86525 -3.35558
rtoes -13.3846
lfemur -26.5769 -1.73802 -15.9669
ltibia 22.3212
lfoot -1.96636 2.02217
ltoes -5.87527
